:SAMPLES-PER-SECOND 30
:FULLY-SPECIFIED
:DEGREES
95
root  -7.69964 37.7605 0.774922 40.6402 82.5371 46.3932
RightUpLeg  13.6866 1.67576 -8.3756
RightLeg  38.4458 4.14038 3.25554
RightFoot  -13.8998 0.34088 16.9542
RightToes  3.49245e-010 0 -3.6325e-017
Spine  3.51358 2.45911 0.838805
Spine1  8.14052 4.14066 -7.94624
HEad  -7.94152 0.383017 -1.22037
LeftShoulder1  -0.672536 5.19414 -33.6257
LeftArm  1.32119 13.2185 -38.0575
LeftForeArm  34.6924 -11.3888 -8.63544
LeftHand  -0.103512 8.45003 -2.04891
RightShoulder  -0.782427 -5.6618 29.6129
RightArm  13.2746 3.4633 50.5035
RightForeArm  24.0716 5.30113 7.2398
RightHand  0.0336434 1.2332 0.420442
LeftUpLeg  -19.5896 2.59877 -7.25809
LeftLeg  23.717 2.42669 1.50806
LeftFoot  2.79663 -0.816817 6.42513
LeftToes  -5.6298e-010 8.41567e-011 -1.83319e-011
96
root  -6.41945 37.8743 0.601726 42.4695 81.2372 48.2502
RightUpLeg  7.31032 3.28032 -10.0722
RightLeg  50.0298 3.78154 4.46745
RightFoot  -2.07814 -1.04753 13.1294
RightToes  3.49245e-010 0 -3.6325e-017
Spine  3.46477 2.39058 -1.13139
Spine1  7.90317 3.77961 -7.35785
HEad  -8.52777 1.35295 -2.23736
LeftShoulder1  -0.661083 5.16341 -33.6672
LeftArm  1.05211 10.2791 -38.9131
LeftForeArm  34.4764 -11.4484 -8.58262
LeftHand  -0.078968 8.13422 -1.38061
RightShoulder  -0.768591 -5.64547 29.2401
RightArm  13.0884 1.55356 51.0398
RightForeArm  26.2725 3.05589 7.22352
RightHand  -0.00470694 0.785786 -0.166998
LeftUpLeg  -17.8541 2.8311 -8.76165
LeftLeg  24.6651 3.08377 1.89372
LeftFoot  0.421204 -0.71408 6.88903
LeftToes  -5.6298e-010 8.41567e-011 -1.83319e-011
97
root  -5.2271 37.971 0.493002 43.0449 80.3418 48.9326
RightUpLeg  1.38775 4.68544 -10.8519
RightLeg  58.7283 3.10407 5.044
RightFoot  4.45434 -1.28292 9.27628
RightToes  3.49245e-010 0 -3.6325e-017
Spine  3.31725 2.10053 -3.20197
Spine1  8.16124 3.09703 -6.48957
HEad  -9.66659 2.4781 -2.70386
LeftShoulder1  -0.642659 5.13086 -33.339
LeftArm  2.06828 7.06547 -39.8893
LeftForeArm  32.2282 -12.0522 -8.558
LeftHand  -0.0403787 8.29044 0.189697
RightShoulder  -0.80293 -5.7113 29.7415
RightArm  13.7157 -0.0552291 50.3964
RightForeArm  27.8191 3.4499 7.42582
RightHand  0.026774 1.32694 0.34031
LeftUpLeg  -15.984 3.05858 -9.78481
LeftLeg  25.2065 3.51799 2.15744
LeftFoot  -1.88624 -0.566589 6.98283
LeftToes  -5.6298e-010 8.41567e-011 -1.83319e-011
98
root  -4.10245 38.1851 0.384519 41.1945 80.3857 47.4792
RightUpLeg  -3.1464 5.25248 -10.7832
RightLeg  63.2517 2.58974 5.03848
RightFoot  1.87365 -1.18189 10.2795
RightToes  3.49245e-010 0 -3.6325e-017
Spine  3.70399 1.76773 -4.24745
Spine1  8.27702 2.26683 -5.26014
HEad  -10.6276 3.47156 -3.39548
LeftShoulder1  -0.646788 5.1201 -33.8473
LeftArm  4.28559 3.02662 -40.1223
LeftForeArm  30.8104 -12.6688 -8.69636
LeftHand  -0.0339098 7.80796 0.373021
RightShoulder  -0.795867 -5.71906 29.2968
RightArm  14.3599 -2.61528 49.7023
RightForeArm  27.9356 5.86043 7.50255
RightHand  0.0761128 1.78963 1.08235
LeftUpLeg  -13.2308 3.57149 -9.84841
LeftLeg  24.5193 3.4373 2.06628
LeftFoot  -3.6004 -0.454368 7.01677
LeftToes  -5.6298e-010 8.41567e-011 -1.83319e-011
99
root  -2.98832 38.4393 0.2845 38.9009 80.9738 45.3317
RightUpLeg  -7.43347 5.44126 -10.0133
RightLeg  64.29 2.26347 4.55789
RightFoot  1.2299 -1.08632 9.91162
RightToes  3.49245e-010 0 -3.6325e-017
Spine  3.8165 1.203 -4.46238
Spine1  8.07647 1.45241 -4.58642
HEad  -10.9545 3.80231 -3.79508
LeftShoulder1  -0.580512 4.98137 -33.1329
LeftArm  5.39453 -0.361991 -41.1815
LeftForeArm  29.7762 -13.5465 -8.37237
LeftHand  -0.0381224 7.28688 0.109997
RightShoulder  -0.818873 -5.77941 29.3648
RightArm  15.2695 -4.82633 48.7271
RightForeArm  25.3888 8.4568 7.4241
RightHand  0.0613041 2.72442 0.663957
LeftUpLeg  -10.4771 3.67989 -9.38658
LeftLeg  23.3129 3.38059 1.91721
LeftFoot  -5.04402 -0.342636 6.78344
LeftToes  -5.6298e-010 8.41567e-011 -1.83319e-011
100
root  -1.87583 38.6713 0.231724 38.558 81.8563 45.138
RightUpLeg  -10.8398 5.24759 -9.23217
RightLeg  62.1911 1.90034 3.3949
RightFoot  -0.130873 -0.894656 9.08318
RightToes  3.49245e-010 0 -3.6325e-017
Spine  3.83848 0.581195 -5.12649
Spine1  7.87287 0.505802 -3.3876
HEad  -10.9237 4.08468 -3.29866
LeftShoulder1  -0.535892 4.89359 -32.418
LeftArm  7.32302 -3.17993 -42.1553
LeftForeArm  27.9788 -15.4009 -7.4752
LeftHand  -0.0315563 7.07798 0.431806
RightShoulder  -0.827057 -5.79981 29.4034
RightArm  17.3196 -6.85651 47.7605
RightForeArm  22.0841 11.1246 7.12925
RightHand  0.0403171 2.99488 0.332275
LeftUpLeg  -7.56477 3.83556 -8.83275
LeftLeg  21.7942 2.80316 1.38952
LeftFoot  -6.24394 -0.273543 6.9802
LeftToes  -5.6298e-010 8.41567e-011 -1.83319e-011
101
root  -0.808261 38.8916 0.164814 35.7944 82.4096 42.5363
RightUpLeg  -13.5904 5.76126 -8.35743
RightLeg  57.1225 1.83151 2.62407
RightFoot  -1.05397 -0.711589 7.81488
RightToes  3.49245e-010 0 -3.6325e-017
Spine  3.99197 0.275268 -5.51509
Spine1  7.63183 -0.0897309 -2.08676
HEad  -10.8663 3.85552 -3.14313
LeftShoulder1  -0.521775 4.85757 -32.3975
LeftArm  10.12 -5.97247 -42.7101
LeftForeArm  24.0802 -17.7688 -6.25251
LeftHand  -0.0267941 7.42142 0.741488
RightShoulder  -0.801102 -5.76304 28.8378
RightArm  18.8972 -8.21843 47.3968
RightForeArm  19.5125 12.9153 6.73451
RightHand  -0.0088019 3.22062 -0.351344
LeftUpLeg  -4.47535 4.17817 -8.14419
LeftLeg  19.7976 2.39669 0.874743
LeftFoot  -7.20811 -0.215311 7.16677
LeftToes  -5.6298e-010 8.41567e-011 -1.83319e-011
102
root  0.25924 39.0375 0.105291 33.3927 83.1272 40.2411
RightUpLeg  -15.2513 6.08604 -7.5542
RightLeg  49.3332 1.98038 2.12485
RightFoot  -2.14402 -0.628609 7.63586
RightToes  3.49245e-010 0 -3.6325e-017
Spine  3.98968 -0.123105 -5.48831
Spine1  7.51256 -0.613793 -1.28824
HEad  -10.7847 3.75307 -2.89104
LeftShoulder1  -0.548942 4.93074 -32.326
LeftArm  13.2157 -8.38083 -42.974
LeftForeArm  20.1624 -20.5978 -4.84354
LeftHand  -0.0154345 7.37408 1.33087
RightShoulder  -0.797776 -5.76508 28.6586
RightArm  20.0862 -8.96097 46.9718
RightForeArm  18.1663 14.1117 6.42414
RightHand  -0.0240554 3.54783 -0.549156
LeftUpLeg  -1.72517 4.86119 -7.31831
LeftLeg  18.3105 1.45113 0.23987
LeftFoot  -8.36737 -0.142636 7.42082
LeftToes  -5.6298e-010 8.41567e-011 -1.83319e-011
103
root  1.31946 39.1063 0.0617824 30.6976 83.2888 37.3634
RightUpLeg  -16.3515 6.72873 -7.20716
RightLeg  39.4423 2.23657 1.70747
RightFoot  -2.88753 -0.627446 8.20352
RightToes  3.49245e-010 0 -3.6325e-017
Spine  3.85315 -0.401905 -5.40256
Spine1  7.08169 -0.841724 -0.923149
HEad  -10.6911 4.13284 -2.25822
LeftShoulder1  -0.553531 4.95428 -32.0107
LeftArm  14.2725 -10.1194 -42.9076
LeftForeArm  18.3124 -23.3718 -4.09733
LeftHand  -0.0140228 7.33776 1.46298
RightShoulder  -0.774058 -5.69165 28.744
RightArm  20.0608 -9.25535 46.6287
RightForeArm  18.5654 14.3925 6.24867
RightHand  0.0430015 3.17403 0.348567
LeftUpLeg  0.660605 5.29046 -6.84269
LeftLeg  16.8356 1.15042 -0.105175
LeftFoot  -9.67192 -0.051358 7.5131
LeftToes  -5.6298e-010 8.41567e-011 -1.83319e-011
104
root  2.36042 39.129 0.0200728 31.417 83.8168 38.0341
RightUpLeg  -16.421 6.4213 -7.1167
RightLeg  28.3557 2.01137 1.03357
RightFoot  -2.86489 -0.629293 8.21439
RightToes  3.49245e-010 0 -3.6325e-017
Spine  3.77305 -0.646713 -5.42526
Spine1  7.07478 -1.12725 -0.203207
HEad  -11.2076 3.8053 -2.5335
LeftShoulder1  -0.492234 4.80884 -31.5746
LeftArm  12.6934 -11.8008 -43.4109
LeftForeArm  19.7241 -25.6295 -4.43001
LeftHand  -0.0130321 6.41923 2.16604
RightShoulder  -0.768624 -5.69798 28.3949
RightArm  18.5964 -8.97656 46.8976
RightForeArm  19.1745 13.5425 6.37235
RightHand  0.0154766 3.31081 -0.0173078
LeftUpLeg  2.95921 5.31285 -6.68265
LeftLeg  15.7151 0.804453 -0.151773
LeftFoot  -10.8096 0.0295054 7.6824
LeftToes  -5.6298e-010 8.41567e-011 -1.83319e-011
105
root  3.42768 39.1044 -0.00575658 33.3169 84.0946 39.7892
RightUpLeg  -16.2388 4.64698 -6.86366
RightLeg  17.5611 2.14644 0.25023
RightFoot  -2.99368 -0.62566 8.2805
RightToes  3.49245e-010 0 -3.6325e-017
Spine  3.23905 -0.732893 -5.30937
Spine1  7.5333 -1.16231 0.206674
HEad  -11.4267 3.12702 -2.53446
LeftShoulder1  -0.448933 4.70386 -31.274
LeftArm  11.9228 -13.4131 -43.7839
LeftForeArm  20.4767 -27.4679 -4.81335
LeftHand  -0.0131738 6.19838 2.51974
RightShoulder  -0.786909 -5.73587 28.6264
RightArm  17.163 -8.7082 46.725
RightForeArm  20.7635 12.9628 6.28166
RightHand  0.0620518 2.55148 0.701725
LeftUpLeg  5.15171 5.62065 -6.56626
LeftLeg  14.674 0.296229 -0.453372
LeftFoot  -12 0.118335 7.95475
LeftToes  -5.6298e-010 8.41567e-011 -1.83319e-011
106
root  4.51567 39.0365 -0.0328674 35.305 83.6886 41.3197
RightUpLeg  -16.4161 -0.454067 -5.64308
RightLeg  7.88101 6.66622 -0.667522
RightFoot  -2.78754 -0.642037 8.31128
RightToes  3.49245e-010 0 -3.6325e-017
Spine  2.15631 -0.539869 -4.7969
Spine1  8.35608 -0.720078 -0.0951939
HEad  -11.8923 2.73506 -2.23492
LeftShoulder1  -0.426347 4.6517 -30.9874
LeftArm  11.7251 -14.3913 -44.0354
LeftForeArm  21.2146 -29.4201 -5.21893
LeftHand  -0.0153964 6.1862 2.3049
RightShoulder  -0.797235 -5.75161 28.8432
RightArm  15.396 -8.16569 46.7369
RightForeArm  21.4203 11.8022 6.33448
RightHand  0.0501633 3.1836 0.443624
LeftUpLeg  7.16225 5.63871 -6.9918
LeftLeg  13.3383 0.503245 -0.627281
LeftFoot  -13.1386 0.206019 8.12145
LeftToes  -5.6298e-010 8.41567e-011 -1.83319e-011
107
root  5.64215 38.9119 -0.0550633 36.1862 83.3522 41.8379
RightUpLeg  -16.771 -5.15275 -4.11567
RightLeg  0.332728 12.0696 -1.58171
RightFoot  -2.84764 -0.73401 9.61024
RightToes  3.49245e-010 0 -3.6325e-017
Spine  1.49243 -0.370112 -3.74657
Spine1  8.56368 -0.273769 -0.841956
HEad  -12.2299 2.60312 -2.04091
LeftShoulder1  -0.367076 4.49799 -30.7714
LeftArm  11.9002 -14.3658 -44.1429
LeftForeArm  21.9038 -30.8467 -5.51802
LeftHand  -0.0201017 5.77323 2.59051
RightShoulder  -0.764715 -5.66339 28.769
RightArm  14.5539 -7.71234 47.0375
RightForeArm  22.3434 10.4813 6.56143
RightHand  0.0426405 2.30529 0.472805
LeftUpLeg  9.20938 5.50076 -7.44024
LeftLeg  12.2278 0.8328 -0.522919
LeftFoot  -14.4948 0.306197 7.90857
LeftToes  -5.6298e-010 8.41567e-011 -1.83319e-011
108
root  6.79736 38.6847 -0.0356396 36.7845 83.0164 42.1214
RightUpLeg  -17.8283 -5.26055 -3.96485
RightLeg  -2.31301 11.9587 -1.42574
RightFoot  -3.19609 -0.74198 10.0919
RightToes  3.49245e-010 0 -3.6325e-017
Spine  1.2112 -0.269728 -3.06289
Spine1  8.60533 -0.0214397 -1.30004
HEad  -12.6576 2.6912 -2.74483
LeftShoulder1  -0.446985 4.70053 -31.2177
LeftArm  12.3272 -14.1549 -43.8758
LeftForeArm  22.1003 -31.6874 -5.71087
LeftHand  -0.0175557 5.87885 2.43112
RightShoulder  -0.743808 -5.61169 28.637
RightArm  14.4043 -6.79495 47.3696
RightForeArm  22.6716 9.46305 6.86065
RightHand  0.00457685 3.15817 -0.175211
LeftUpLeg  10.8308 5.59206 -7.78596
LeftLeg  12.265 0.902849 -0.456512
LeftFoot  -16.2207 0.437604 7.97998
LeftToes  -5.6298e-010 8.41567e-011 -1.83319e-011
109
root  7.9984 38.377 0.0425481 38.1465 82.869 43.4129
RightUpLeg  -19.4635 -4.81331 -3.74274
RightLeg  1.11862 8.31232 -0.861636
RightFoot  -2.48935 -0.715362 9.00417
RightToes  3.49245e-010 0 -3.6325e-017
Spine  1.35576 -0.220418 -2.90167
Spine1  8.70738 0.0480239 -1.29134
HEad  -13.6021 3.08302 -3.27411
LeftShoulder1  -0.468602 4.75393 -31.334
LeftArm  12.3848 -13.0599 -44.169
LeftForeArm  22.7383 -31.9683 -5.74338
LeftHand  -0.0125828 5.76873 2.74156
RightShoulder  -0.735868 -5.58803 28.649
RightArm  14.7585 -5.83906 47.3508
RightForeArm  23.2303 9.32969 6.99764
RightHand  0.0198166 2.56527 0.0804024
LeftUpLeg  12.4822 5.66384 -8.05139
LeftLeg  12.9942 0.939035 -0.160948
LeftFoot  -18.4598 0.575009 7.45695
LeftToes  -5.6298e-010 8.41567e-011 -1.83319e-011
